HIERARCHY
ROOT Hips
{
	OFFSET -0.001795 -0.223333 0.028219
	CHANNELS 6 Xposition Yposition Zposition Zrotation Yrotation Xrotation 
	JOINT LeftUpLeg
	{
		OFFSET 0.069520 -0.091406 -0.006815
		CHANNELS 3 Zrotation Yrotation Xrotation
		JOINT LeftLeg
		{
			OFFSET 0.034277 -0.375199 -0.004496
			CHANNELS 3 Zrotation Yrotation Xrotation
			JOINT LeftFoot
			{
				OFFSET -0.013596 -0.397961 -0.043693
				CHANNELS 3 Zrotation Yrotation Xrotation
				JOINT LeftToe
				{
					OFFSET 0.026358 -0.055791 0.119288
					CHANNELS 3 Zrotation Yrotation Xrotation
					End Site
					{
						OFFSET 0.000000 0.000000 0.000000
					}
				}
			}
		}
	}
	JOINT RightUpLeg
	{
		OFFSET -0.067670 -0.090522 -0.004320
		CHANNELS 3 Zrotation Yrotation Xrotation
		JOINT RightLeg
		{
			OFFSET -0.038290 -0.382569 -0.008850
			CHANNELS 3 Zrotation Yrotation Xrotation
			JOINT RightFoot
			{
				OFFSET 0.015774 -0.398415 -0.042312
				CHANNELS 3 Zrotation Yrotation Xrotation
				JOINT RightToe
				{
					OFFSET -0.025372 -0.048144 0.123348
					CHANNELS 3 Zrotation Yrotation Xrotation
					End Site
					{
						OFFSET 0.000000 0.000000 0.000000
					}
				}
			}
		}
	}
	JOINT Spine
	{
		OFFSET -0.002533 0.108963 -0.026696
		CHANNELS 3 Zrotation Yrotation Xrotation
		JOINT Spine1
		{
			OFFSET 0.005487 0.135180 0.001092
			CHANNELS 3 Zrotation Yrotation Xrotation
			JOINT Spine2
			{
				OFFSET 0.001457 0.052922 0.025425
				CHANNELS 3 Zrotation Yrotation Xrotation
				JOINT Neck
				{
					OFFSET -0.002778 0.213870 -0.042857
					CHANNELS 3 Zrotation Yrotation Xrotation
					JOINT Head
					{
						OFFSET 0.005152 0.064970 0.051349
						CHANNELS 3 Zrotation Yrotation Xrotation
						End Site
						{
							OFFSET 0.000000 0.000000 0.000000
						}
					}
				}
				JOINT LeftShoulder
				{
					OFFSET 0.078845 0.121749 -0.034090
					CHANNELS 3 Zrotation Yrotation Xrotation
					JOINT LeftArm
					{
						OFFSET 0.090977 0.030469 -0.008868
						CHANNELS 3 Zrotation Yrotation Xrotation
						JOINT LeftForeArm
						{
							OFFSET 0.259612 -0.012772 -0.027456
							CHANNELS 3 Zrotation Yrotation Xrotation
							JOINT LeftHand
							{
								OFFSET 0.249234 0.008986 -0.001171
								CHANNELS 3 Zrotation Yrotation Xrotation
								End Site
								{
									OFFSET 0.000000 0.000000 0.000000
								}
							}
						}
					}
				}
				JOINT RightShoulder
				{
					OFFSET -0.081759 0.118833 -0.038615
					CHANNELS 3 Zrotation Yrotation Xrotation
					JOINT RightArm
					{
						OFFSET -0.096012 0.032551 -0.009143
						CHANNELS 3 Zrotation Yrotation Xrotation
						JOINT RightForeArm
						{
							OFFSET -0.253742 -0.013329 -0.021401
							CHANNELS 3 Zrotation Yrotation Xrotation
							JOINT RightHand
							{
								OFFSET -0.255298 0.007772 -0.005559
								CHANNELS 3 Zrotation Yrotation Xrotation
								End Site
								{
									OFFSET 0.000000 0.000000 0.000000
								}
							}
						}
					}
				}
			}
		}
	}
}
MOTION
Frames: 12
Frame Time: 0.050000
0.000000 0.938962 0.000000 1.114348 -4.519857 2.437874 1.379850 0.095037 1.321872 -3.033669 0.389950 -3.939748 5.936092 13.460146 8.378168 0.000000 0.000000 0.000000 -3.915244 0.251009 -1.539899 3.688164 -0.326361 2.119986 -5.505112 -14.096430 2.876581 0.000000 0.000000 0.000000 6.971620 -0.633894 5.324253 -5.793332 1.941297 -23.595770 -2.158225 7.384247 27.077653 9.019653 -3.233351 -24.013611 0.000000 0.000000 0.000000 -1.043808 -2.912490 0.912072 -12.527454 -5.399923 -1.637346 20.252452 -2.953313 -0.533222 0.000000 0.000000 0.000000 7.692584 -7.827760 -3.390606 13.274884 4.611115 -1.810128 -16.437282 11.072708 -0.766965 0.000000 0.000000 0.000000 
0.000107 0.938568 0.000049 0.858398 -4.232948 2.358940 1.412913 0.208261 2.685081 -2.552535 0.377877 -6.087451 5.516098 12.724333 8.107006 0.000000 0.000000 0.000000 -3.414657 0.172824 -0.621647 3.126073 -0.284175 0.896006 -6.027866 -15.371327 3.719727 0.000000 0.000000 0.000000 7.632929 -0.729991 5.877171 -6.330952 2.084089 -23.365218 -2.612444 7.695591 25.944619 8.579852 -2.762721 -24.493477 0.000000 0.000000 0.000000 -0.580413 -3.770631 1.226061 -13.258392 -5.953738 -1.643305 19.502854 -2.961716 -0.524838 0.000000 0.000000 0.000000 9.129924 -8.289510 -3.674563 13.805840 2.763141 -1.964269 -15.774253 13.262216 -0.933269 0.000000 0.000000 0.000000 
-0.000013 0.938173 0.000012 0.944060 -4.967916 2.016435 1.767243 0.184650 2.469866 -3.064988 0.399370 -4.314624 6.417877 14.254826 8.047661 0.000000 0.000000 0.000000 -3.920645 0.220219 -1.050920 3.921420 -0.351767 1.696087 -5.297037 -13.730271 3.328183 0.000000 0.000000 0.000000 7.947028 -0.777665 6.277883 -6.928786 2.199815 -24.197099 -2.149880 8.474078 27.423962 8.773716 -2.728220 -25.341151 0.000000 0.000000 0.000000 -1.038818 -4.353657 1.400454 -13.134910 -6.184056 -1.650429 18.809166 -1.495950 -0.309615 0.000000 0.000000 0.000000 10.010129 -8.540701 -3.813360 14.541151 4.221746 -2.029738 -15.216874 11.511227 -0.694999 0.000000 0.000000 0.000000 
-0.000158 0.938372 0.000110 1.323094 -4.784482 1.510544 1.595582 0.256370 3.242767 -3.664232 0.450741 -4.711116 6.458708 14.319257 7.782113 0.000000 0.000000 0.000000 -3.864524 0.156339 -0.147239 3.775407 -0.347183 0.732496 -5.520469 -14.449325 4.571272 0.000000 0.000000 0.000000 7.695727 -0.780580 6.591746 -7.092357 2.251471 -24.189131 -2.498471 8.291849 27.962337 8.448809 -2.448549 -26.070510 0.000000 0.000000 0.000000 -1.021909 -4.927268 1.607248 -14.979792 -6.575643 -1.836530 19.280014 -1.176572 -0.263239 0.000000 0.000000 0.000000 10.996809 -8.526895 -3.881568 15.091819 4.029957 -2.127492 -14.468640 11.931786 -0.683878 0.000000 0.000000 0.000000 
-0.000397 0.938646 0.000258 1.320842 -5.282879 1.145891 1.549385 0.271543 3.346356 -3.572925 0.445316 -4.155386 6.296409 14.023937 7.852189 0.000000 0.000000 0.000000 -3.890621 0.145477 0.062649 3.797583 -0.343543 0.921267 -5.139715 -13.668991 4.636230 0.000000 0.000000 0.000000 7.232079 -0.772883 6.946332 -6.378755 2.074198 -23.982562 -2.681827 8.674601 27.608355 8.782515 -2.683523 -25.661728 0.000000 0.000000 0.000000 -2.359355 -5.007559 1.560990 -16.011360 -6.687752 -1.916991 19.293386 -2.512277 -0.442092 0.000000 0.000000 0.000000 11.616852 -8.178722 -3.755736 16.628068 4.486945 -2.264386 -14.060417 12.468035 -0.686651 0.000000 0.000000 0.000000 
-0.000637 0.938849 0.000490 1.479999 -5.256430 1.144112 1.197209 0.271354 3.209971 -3.490089 0.435943 -3.799645 6.232382 13.900259 7.695664 0.000000 0.000000 0.000000 -4.155308 0.158509 0.026596 3.702524 -0.332859 1.088890 -5.220451 -13.884198 4.857302 0.000000 0.000000 0.000000 6.857681 -0.732441 6.786046 -6.702522 2.166334 -23.647548 -2.526445 8.161373 27.582686 8.569786 -2.538852 -26.293398 0.000000 0.000000 0.000000 -3.184920 -4.841643 1.480315 -17.751272 -6.768801 -2.101724 19.224021 -3.587231 -0.552769 0.000000 0.000000 0.000000 12.612692 -7.741025 -3.683127 18.678797 5.071676 -2.423047 -13.800864 13.216150 -0.728048 0.000000 0.000000 0.000000 
-0.000830 0.938846 0.000692 1.567605 -5.529281 1.091110 1.425864 0.251298 3.045134 -3.804520 0.466073 -3.541717 6.238154 13.912369 7.876974 0.000000 0.000000 0.000000 -4.204788 0.176732 -0.210444 3.533714 -0.308646 1.508656 -5.225457 -13.900730 4.862417 0.000000 0.000000 0.000000 6.716210 -0.739324 6.990325 -6.505917 2.120808 -23.276107 -2.742276 8.456667 27.255798 8.867205 -2.673575 -26.347584 0.000000 0.000000 0.000000 -4.858811 -5.097671 1.476394 -18.921273 -6.445288 -2.231233 18.911295 -4.680975 -0.682823 0.000000 0.000000 0.000000 14.204021 -7.501837 -3.670927 20.157047 5.356426 -2.561180 -12.722865 13.949137 -0.677920 0.000000 0.000000 0.000000 
-0.001030 0.938728 0.000831 1.559757 -5.410262 1.169815 1.552344 0.202487 2.531042 -3.920013 0.475126 -2.796843 6.303768 14.018303 7.748050 0.000000 0.000000 0.000000 -3.927465 0.201750 -0.804373 3.251963 -0.265816 2.508486 -5.246296 -13.865392 4.470707 0.000000 0.000000 0.000000 6.825717 -0.746661 6.962120 -6.647820 2.164769 -23.025814 -2.795436 8.327355 27.537359 9.362884 -2.901886 -26.890335 0.000000 0.000000 0.000000 -6.773370 -5.188771 1.416189 -20.260792 -6.259805 -2.403175 18.486998 -6.099729 -0.832453 0.000000 0.000000 0.000000 16.015717 -7.106269 -3.602833 22.113734 5.606058 -2.772871 -11.883561 14.688888 -0.637076 0.000000 0.000000 0.000000 
-0.001243 0.938382 0.000814 1.564793 -5.479635 1.251493 1.696257 0.176434 2.265320 -4.223612 0.507198 -2.329785 6.441959 14.243791 7.575308 0.000000 0.000000 0.000000 -3.964752 0.223611 -1.117949 3.387953 -0.273912 2.957673 -5.249826 -13.834990 4.279121 0.000000 0.000000 0.000000 6.762607 -0.733689 6.852586 -6.480202 2.131921 -22.566045 -2.947002 8.440073 27.458914 9.493191 -2.895629 -27.291714 0.000000 0.000000 0.000000 -8.420913 -5.521070 1.450104 -21.857908 -6.132914 -2.574929 17.721116 -7.596321 -0.961177 0.000000 0.000000 0.000000 17.613662 -6.714563 -3.498468 24.323825 5.802149 -2.990233 -11.207176 15.800217 -0.614850 0.000000 0.000000 0.000000 
-0.001674 0.938001 0.000634 1.613061 -5.303873 1.357003 1.910421 0.137425 1.865757 -4.474743 0.533623 -1.943180 6.651436 14.597330 7.307415 0.000000 0.000000 0.000000 -3.846544 0.249177 -1.590719 3.177799 -0.240469 3.581253 -5.262897 -13.759472 3.786618 0.000000 0.000000 0.000000 6.675229 -0.732472 6.868268 -6.337716 2.098983 -22.479195 -3.190866 8.150498 27.761703 10.174769 -3.255570 -27.765220 0.000000 0.000000 0.000000 -10.074059 -5.887109 1.547935 -23.851392 -5.734880 -2.865922 16.876313 -10.184516 -1.182492 0.000000 0.000000 0.000000 19.284930 -6.401896 -3.489317 26.580975 6.129836 -3.179174 -10.189087 17.438059 -0.566587 0.000000 0.000000 0.000000 
-0.002259 0.937517 0.000303 1.591947 -5.276554 1.372624 2.027048 0.105741 1.501456 -4.703862 0.563285 -1.273781 6.929121 15.065160 6.949564 0.000000 0.000000 0.000000 -3.730419 0.238952 -1.482326 3.380939 -0.267300 3.466167 -5.506794 -14.277121 3.786237 0.000000 0.000000 0.000000 6.630840 -0.725657 6.821661 -6.195456 2.068674 -22.230998 -3.380465 8.233879 27.630781 10.298712 -3.223418 -28.237340 0.000000 0.000000 0.000000 -11.594901 -6.416016 1.682213 -26.036147 -5.565390 -3.117514 15.525943 -12.717656 -1.313826 0.000000 0.000000 0.000000 20.808252 -6.240716 -3.490296 29.449209 6.327583 -3.433974 -8.975822 19.579275 -0.453393 0.000000 0.000000 0.000000 
-0.002968 0.937442 -0.000066 1.685756 -5.194758 1.518482 2.081565 0.080769 1.211515 -4.822952 0.580924 -0.742375 7.029907 15.236922 6.815727 0.000000 0.000000 0.000000 -3.516166 0.262084 -1.912615 3.404357 -0.261972 4.042152 -5.689955 -14.678153 3.823337 0.000000 0.000000 0.000000 6.540462 -0.747048 7.085614 -6.298165 2.094186 -22.281094 -3.504014 7.870204 27.699241 10.786171 -3.456264 -28.825729 0.000000 0.000000 0.000000 -13.164904 -6.880686 1.879541 -28.480851 -5.376823 -3.446574 13.629678 -15.932128 -1.356413 0.000000 0.000000 0.000000 22.667860 -5.730572 -3.423599 32.136675 6.425226 -3.654739 -7.439241 22.368499 -0.260513 0.000000 0.000000 0.000000 
